<svg xmlns="http://www.w3.org/2000/svg" viewBox="0 0 148.09 29.42">
  <defs>
    <style>
      .cls-1 {
        fill: #FFF;
      }
    </style>
  </defs>
  <title>Recurso 2</title>
  <g id="Capa_2" data-name="Capa 2">
    <g id="Capa_1-2" data-name="Capa 1">
      <g id="Grupo_1" data-name="Grupo 1">
        <g id="Grupo_2" data-name="Grupo 2">
          <g id="Grupo_1-2" data-name="Grupo 1-2"><path
            id="Trazado_150"
            data-name="Trazado 150"
            class="cls-1"
            d="M41.46,15.59H29.06a5.36,5.36,0,0,0,5.51,5,6.34,6.34,0,0,0,4.7-1.93l1.24,1.3a8.08,8.08,0,0,1-6.11,2.51,7.68,7.68,0,0,1,0-15.35C39.27,7.08,41.69,10.46,41.46,15.59Zm-2-1.79A4.78,4.78,0,0,0,34.72,9h-.35a5.13,5.13,0,0,0-5.31,4.85Z"/><path id="Trazado_151" data-name="Trazado 151" class="cls-1" d="M56.09,7.17V8.84l-9.52,11.6,9.75,0v1.9l-12.46,0V20.67l9.52-11.6L44.12,9V7.16Z"/><path
            id="Trazado_152"
            data-name="Trazado 152"
            class="cls-1"
            d="M64.19,9c-1.7,0-3,.6-3,2,0,3.44,8.48,1.68,8.48,7.13,0,3-2.65,4.3-5.57,4.3a8.54,8.54,0,0,1-5.82-2.14l.86-1.64a7.72,7.72,0,0,0,5,1.93c1.79,0,3.23-.69,3.26-2.22.09-3.69-8.42-1.81-8.39-7.18,0-2.88,2.51-4.12,5.27-4.12a9,9,0,0,1,4.85,1.38l-.86,1.73A8,8,0,0,0,64.19,9Z"/><path
            id="Trazado_153"
            data-name="Trazado 153"
            class="cls-1"
            d="M79.45,9.1A5.3,5.3,0,0,0,74,14.29c0,.16,0,.31,0,.46,0,3.38,2.25,5.69,5.4,5.69a6,6,0,0,0,4.7-2l1.3,1.33A7.72,7.72,0,1,1,79.36,7.08a8,8,0,0,1,5.86,2.25L84,10.89A6.32,6.32,0,0,0,79.45,9.1Z"/><path id="Trazado_154" data-name="Trazado 154" class="cls-1" d="M97.24,7.08V9.27a5.05,5.05,0,0,0-5.43,4.64c0,.12,0,.23,0,.35v8.08H89.54V7.17h2.25v3.38A5.68,5.68,0,0,1,97.24,7.08Z"/><path
            id="Trazado_155"
            data-name="Trazado 155"
            class="cls-1"
            d="M113.37,15.59H101a5.36,5.36,0,0,0,5.51,5,6.37,6.37,0,0,0,4.7-1.93l1.24,1.3a8.11,8.11,0,0,1-6.12,2.51,7.68,7.68,0,0,1,0-15.35C111.17,7.08,113.6,10.46,113.37,15.59Zm-2-1.79A4.79,4.79,0,0,0,106.62,9h-.35A5.13,5.13,0,0,0,101,13.8Z"/><path
            id="Trazado_156"
            data-name="Trazado 156"
            class="cls-1"
            d="M130.33,15.59h-12.4a5.36,5.36,0,0,0,5.51,5,6.35,6.35,0,0,0,4.7-1.93l1.24,1.3a8.11,8.11,0,0,1-6.12,2.51,7.68,7.68,0,0,1,0-15.35C128.13,7.08,130.56,10.46,130.33,15.59Zm-2-1.79A4.79,4.79,0,0,0,123.59,9h-.36a5.14,5.14,0,0,0-5.31,4.85Z"/><path id="Trazado_157" data-name="Trazado 157" class="cls-1" d="M148.09,13v9.35h-2.25V13.57a4,4,0,0,0-3.57-4.32,3.55,3.55,0,0,0-.73,0c-3,0-4.84,2-5.1,5v8.13h-2.25V7.17h2.25v3.35c1.07-2.31,3.11-3.4,5.88-3.43C146,7.08,148.09,9.3,148.09,13Z"/></g>
        </g><path
          id="Trazado_158"
          data-name="Trazado 158"
          class="cls-1"
          d="M19.25,19.67V1.53C18.86-.85,16.32.26,16.32.26L2.44,5C-.13,5.8,0,8.77,0,8.77V24.59c0,3,3.37,1.82,3.37,1.82L17.14,22C19.37,21.35,19.25,19.67,19.25,19.67Zm-2.11-.08c0,.26-1,.56-1,.56l-14,4.59V8.11c0-.65.29-.71.63-.87,1-.48,10.9-4,13.53-4.83.49-.15.75-.28.76,0s0,.6,0,.6v15.2S17.13,19,17.14,19.59Z"/><path
          id="Trazado_159"
          data-name="Trazado 159"
          class="cls-1"
          d="M22.56,22.43V4.29C22.18,1.92,19.63,3,19.63,3L5.75,7.72c-2.56.85-2.43,3.82-2.43,3.82V27.35c-.06,3,3.37,1.83,3.37,1.83l13.77-4.37C22.69,24.12,22.56,22.43,22.56,22.43Zm-2.11-.08c0,.27-1,.57-1,.57l-14,4.58V10.87c0-.64.29-.7.63-.86,1-.49,10.9-4,13.53-4.83.49-.16.76-.29.77,0V20.93s0,.83,0,1.42Z"/></g>
    </g>
  </g>
</svg>
